<svg id="Layer_1" data-name="Layer 1" xmlns="http://www.w3.org/2000/svg" viewBox="0 0 1970.65 719.97"><defs><style>.cls-1{font-size:205.09px;font-family:Capriola-Regular, Capriola;}.cls-1,.cls-3{fill:#f04d54;}.cls-2{fill:#fff;}.cls-4{fill:#f5cea8;}.cls-5{fill:#ae5a2a;}.cls-6{opacity:0.15;}.cls-7{fill:#010101;}.cls-8{opacity:0.1;}.cls-9{fill:#d61f26;}.cls-10{fill:#f47a63;}.cls-11{fill:#b7c134;}</style></defs><text class="cls-1" transform="translate(732.46 447.81)">Heavenly</text><text class="cls-1" transform="translate(1254.34 663.09)">Bakery</text><path class="cls-2" d="M-217,418.24c16.67-.2,51.85,0,62.73-15.76s.08-29-16.44-35c28.42-1.16,84.34-41.17,28.22-43.76,15.57-5.79,30-17.17,38.43-31.79,12.19-19.45,2.36-46.86-23.94-31.44,10.81-12.7,34.17-34.37,33.37-52.28,1.48-35.77-35-9.49-48.84,3.14,13.67-29.3,23.89-69.18,13.55-100.92-6.9-21.15-50.93-60.79-52-19.77-1.68,64.77-17.75,116.64-96.45,182.77s-37.3,188,8.39,186.87S-217,418.24-217,418.24Z" transform="translate(744.4 -70.36)"/><path class="cls-2" d="M-217,420.74c14.82-.18,30.05-.25,44.42-4.32,6.67-1.89,13.58-4.81,18.36-10,5.51-6,8.6-15,5.71-22.95-3.42-9.38-12.58-15.07-21.54-18.35l-.66,4.91a60.92,60.92,0,0,0,19.9-4.84A95.42,95.42,0,0,0-131,354.51c7-5,21.17-16.81,12.53-26.29-2.18-2.39-5.37-3.76-8.39-4.69a63.32,63.32,0,0,0-15.55-2.28l.67,4.91c17.43-6.56,34-19.58,42-36.79,4.86-10.5,5.85-27.71-6.22-34-7.57-3.93-16.32-1-23.22,3l3,3.92c7.38-8.63,15.41-16.65,22.24-25.75a73.22,73.22,0,0,0,9-14.84,38,38,0,0,0,3-15.2c0-7.33-1.89-16.6-10.23-18.44-7.23-1.6-15,2.11-21.11,5.55a120.8,120.8,0,0,0-21.81,16l3.92,3A199.45,199.45,0,0,0-125.67,165c3-16.47,3.8-33.74-.34-50.1-2.65-10.47-8.47-19.22-15.77-27.08-6.49-7-14.8-14.43-24.3-16.83C-169.71,70-173.77,70-177,72.1c-3.86,2.46-5.76,6.93-6.6,11.28-1.17,6.14-.86,12.57-1.21,18.8s-.87,12.39-1.62,18.55a190.23,190.23,0,0,1-22.39,70.11c-15.67,28-38,51.73-62,72.85-6.21,5.48-12.71,10.61-18.5,16.53a124.91,124.91,0,0,0-13,15.67A123.5,123.5,0,0,0-319,330,137.81,137.81,0,0,0-322,399c3.85,18.41,11.51,37.45,24.92,51,5.19,5.25,11.49,9.72,18.67,11.72a34.93,34.93,0,0,0,12,.92,62.34,62.34,0,0,0,19.15-4.28c15.77-6.46,27.42-20.33,32-36.64.26-.93.52-1.88.69-2.83.56-3.15-4.26-4.5-4.82-1.33a28.56,28.56,0,0,1-.72,2.9c-.31,1.11-.67,2.2-1,3.28-.55,1.53-1,2.52-1.46,3.66a52.48,52.48,0,0,1-14.22,19c-8.89,7.38-20.33,10.83-31.75,11.32a24.74,24.74,0,0,1-9.69-1.2,23.78,23.78,0,0,1-4.12-1.7,39.65,39.65,0,0,1-4.39-2.61c-13.58-9.28-22.14-26.2-27.1-41.82a133.48,133.48,0,0,1-4-64.33,120.73,120.73,0,0,1,34.08-64.32c5.92-5.8,12.47-10.92,18.64-16.43,6.59-5.89,13-12,19.21-18.27a283.6,283.6,0,0,0,29.75-35.26,193.07,193.07,0,0,0,30.8-68.11,241,241,0,0,0,5.18-35.68c.46-6.11.62-12.23.89-18.35.19-4.17.92-9.44,3.67-12.3,1.93-2,4.63-2.41,7.46-1.82,4.17.86,7.9,3,11.39,5.49a76.22,76.22,0,0,1,20.36,21.64c6.82,10.89,8.4,24.59,8.31,37.34-.13,16.59-3.66,33.06-8.93,48.74a207.31,207.31,0,0,1-8.51,21.33,2.51,2.51,0,0,0,3.92,3A121.08,121.08,0,0,1-124.39,200c5.48-3.43,12.31-7.29,18.66-7.33a7.18,7.18,0,0,1,6,2.43c1.86,2.15,2.54,6.07,2.68,9.27A33.94,33.94,0,0,1-98.88,218a60.68,60.68,0,0,1-7.81,13.83c-6.88,9.64-15.36,17.92-23,26.9-1.78,2.08.45,5.41,3,3.92,5-2.91,11.8-5.78,17.6-3.25,4.22,1.84,6.48,6.15,7.35,10.51,2.77,13.85-7.31,27.33-16.8,36.18a74.89,74.89,0,0,1-24.57,15.23,2.51,2.51,0,0,0,.66,4.91,63.39,63.39,0,0,1,12.57,1.64,24.3,24.3,0,0,1,4,1.33,14.21,14.21,0,0,1,1.69.87c.23.13.45.28.68.43a4.38,4.38,0,0,1,.49.36,5.43,5.43,0,0,1,1.57,1.81c.37.58.13,0,.29.67l.15.57c.14.58,0-.3,0,.29a8,8,0,0,1-1.26,4.57c-2.48,4.45-6.83,8.13-11.08,11.19a90.94,90.94,0,0,1-17.62,9.87c-6.23,2.65-13,4.85-19.79,5.16a2.51,2.51,0,0,0-.67,4.91c7,2.57,14.53,6.94,17.72,14,2.9,6.45.42,14.07-4.23,19.06-4.3,4.61-10.49,7.06-16.45,8.71a109,109,0,0,1-21.09,3.33c-7.18.53-14.38.61-21.57.69C-220.18,415.78-220.19,420.78-217,420.74Z" transform="translate(744.4 -70.36)"/><path class="cls-3" d="M-218.77,243.36c7.52-5.71,18-10.78,27.52-7.52,8.13,2.78,8.67,12.93,6.29,19.56-4.5,12.59-17.81,23.61-29.32,29.69-3.22,1.69-1.81,7,2,6.23,9-1.75,34.45-7.42,33.73,8.2-.54,11.78-23.42,16.94-32.37,17.51.37,2.16.75,4.33,1.12,6.5,7-.67,28.21,7.3,17.92,16.25-5.93,5.16-17.57,5-24.9,4.53-3.09-.2-5.2,4.3-2.17,6,8.21,4.65,21.68,11.76,18.72,23.21-2.2,8.54-18.4,7.77-25.07,8.37-3.47.31-3.44,5.23-.56,6.36,5.07,2,8.21,6,8.12,11.61-.11,6.74-7.29,8.56-12.51,8.67-6.38.14-12.77-1.87-18.85-3.59-4.07-1.14-6.34,5.05-2.24,6.22,11.2,3.16,25.66,7.61,35.52-1,10.26-8.9,2.7-24-7.8-28.16q-.28,3.17-.56,6.35c11-1,24.94-.93,30.16-12.63,6.27-14-11.4-25.35-21.19-30.89q-1.08,3-2.17,6c11.36.74,29,0,34.24-12.13,6.19-14.22-17.77-22.69-27.78-21.73-4.29.41-3,6.77,1.12,6.5,12.77-.81,39.33-8.8,37.86-25.71-1.74-20-28-15.63-41.47-13,.66,2.08,1.31,4.16,2,6.24,15.05-7.95,32.92-23.45,34.56-41.51.82-9.06-5.39-17.63-13.78-20.49-10.93-3.74-23.92,2.87-32.38,9.29-3.39,2.57.92,7.58,4.3,5Z" transform="translate(744.4 -70.36)"/><path class="cls-3" d="M-248.88,268.86c-22.26,19.56-38.56,49.81-45.83,78.2-4.15,16.16-4.63,33,.7,48.93,6.31,18.84,22.09,31.91,39.31,40.52,3.81,1.9,6-4.33,2.24-6.21-16.77-8.38-30.78-21.22-36.35-39.55-4.62-15.2-2.58-31.67,1.72-46.66,7.29-25.38,22.47-52.59,42.51-70.21,3.19-2.81-1.09-7.83-4.3-5Z" transform="translate(744.4 -70.36)"/><path class="cls-2" d="M-441.19,523.66c-10.8,12.71-33.07,40-52.16,38.25s-22.4-18.45-16.44-35c-19,21.14-85.51,38.68-51.7-6.19-14.4,8.3-32.4,12.18-49,9.31-22.76-3-37.59-28.07-8.94-38.49-16.67.21-48.26,4.38-61.55-7.66-28.49-21.68,15-33,33.58-35.61-31.28-8.16-68.51-25.73-86.35-53.95-11.89-18.8-14.32-78,17.94-52.65,50.95,40,101.15,60.74,202.28,42.33S-345,475.25-375,509.71-441.19,523.66-441.19,523.66Z" transform="translate(744.4 -70.36)"/><path class="cls-2" d="M-443,521.89c-9.47,11.16-19.11,22.87-31.38,31.08-5.35,3.59-11.61,6.81-18.23,6.49s-12.91-3.31-15.71-9.49c-3.17-7-1.56-15.43.9-22.37.84-2.35-2.54-4.24-4.18-2.43a55.28,55.28,0,0,1-14.65,11A90.77,90.77,0,0,1-545,544c-5.56,1.6-10.8,2.72-16.56,2.2-.15,0-1-.13-.42,0-.27,0-.55-.08-.82-.14a15.93,15.93,0,0,1-1.55-.38l-.72-.25c-.45-.15-.16-.06-.16-.06a14.69,14.69,0,0,1-1.29-.72l-.1-.06-.49-.43-.38-.42c-.29-.31.05.08.09.13a3.6,3.6,0,0,1-.28-.4c-.13-.24-.56-1.23-.33-.58a10.07,10.07,0,0,1-.39-1.43c.06.28,0,.08,0-.37,0-.3,0-.59,0-.9s0-.63.07-1c-.06.53.05-.3.08-.46a22.54,22.54,0,0,1,1.34-4.33A60.45,60.45,0,0,1-559.34,522c1.58-2.1-1.4-4.57-3.42-3.42-15,8.59-34.2,12.68-51.23,8.24a29.1,29.1,0,0,1-14.43-8.5c-2.87-3.2-4.88-7.59-4.18-11.66,1.15-6.7,8-10.53,13.83-12.69,2.52-.93,2.32-5-.66-4.91-9.79.14-19.54,1-29.33.84-9.39-.17-20.11-.78-28.22-6.06a31.55,31.55,0,0,1-9.34-8.85,15.62,15.62,0,0,1-.94-1.74,11,11,0,0,1-.36-1.06,8.23,8.23,0,0,0-.22-.89,5.78,5.78,0,0,1,.43-3.45,2.08,2.08,0,0,1,.26-.53c.16-.3.33-.6.51-.88a8.54,8.54,0,0,1,1.18-1.49,19.27,19.27,0,0,1,3.51-3,48.09,48.09,0,0,1,10-5,118.12,118.12,0,0,1,25.26-6.3c2.53-.36,2.22-4.24,0-4.82a197.23,197.23,0,0,1-41.88-16c-13.38-7.05-26-15.9-36-27.39a55.56,55.56,0,0,1-9.36-14,65.69,65.69,0,0,1-3.64-12.09c-1.82-8.69-2.6-18.35-.88-26.9a31.83,31.83,0,0,1,1.55-5.35,22.19,22.19,0,0,1,1-2.06,8.43,8.43,0,0,1,1.16-1.64c.24-.26.48-.51.73-.75s.91-.73.44-.39a9.48,9.48,0,0,1,.85-.55l.44-.23c.57-.3-.23.06.23-.11s.65-.21,1-.29c.17,0,1.16-.18.58-.12a8,8,0,0,1,1.1-.05c.22,0,1.37.1,1,0,4.6.64,8.55,3.65,12.19,6.49,4.68,3.65,9.44,7.21,14.3,10.63,19,13.36,39.79,24.2,62.22,30.56,26.53,7.52,54.42,8.77,81.79,6.7,8.49-.64,17-1.61,25.39-2.79s16.82-2.93,25.28-4.08a119.47,119.47,0,0,1,38.39,1,127,127,0,0,1,61,31.09c14.59,13.28,27,30,33.51,48.76,2.64,7.62,4.26,15.13,4,23.08-.22,6.29-1.75,12.42-5.72,17.63.29-.39-.33.4-.43.52-.51.61-1,1.2-1.58,1.79-1.53,1.66-3.13,3.25-4.81,4.75a54.68,54.68,0,0,1-9.24,6.7,47,47,0,0,1-18.11,6,54.8,54.8,0,0,1-26.28-3.78l-.36-.15c-.6-.24.49.21-.08,0l-.75-.33-1.2-.57c-.35-.17-.71-.35-1.05-.54-2.81-1.59-5.33,2.73-2.52,4.31a51.91,51.91,0,0,0,16.35,5.48,54.26,54.26,0,0,0,35.64-5.62,61.09,61.09,0,0,0,17.94-15,31.53,31.53,0,0,0,5.1-9.24c2.52-7.16,2.5-15,1.42-22.39-2.8-19.19-13.27-37.11-25.59-51.74a136.88,136.88,0,0,0-56.64-40.15,123,123,0,0,0-37.12-7.53,122.83,122.83,0,0,0-20.47.77c-8.55,1-17,2.84-25.54,4.08-30,4.39-61.07,5.92-91,.22a190.86,190.86,0,0,1-66.44-26.77c-5.1-3.23-10.07-6.65-14.95-10.2s-9.45-7.62-14.53-10.84c-3.55-2.24-7.86-4.21-12.17-3.81a12.26,12.26,0,0,0-9,5.42c-4.89,6.86-5.19,16.8-4.81,24.87.45,9.59,2.25,19.44,6.21,28.22,2.4,5.32,6.13,10.08,9.93,14.46a109.41,109.41,0,0,0,17.21,15.75c12.71,9.53,27.1,16.72,41.94,22.3a212,212,0,0,0,20.93,6.65v-4.82a121,121,0,0,0-24,5.84c-6.91,2.5-15.38,6-19.2,12.74-4.41,7.76,1.35,15.42,7.32,20.25A37.92,37.92,0,0,0-671.08,492a69.29,69.29,0,0,0,15.94,2.67c11.92.82,23.79-.4,35.71-.57l-.67-4.91c-6.75,2.5-13.71,6.47-16.52,13.49-2.13,5.32-.93,11.28,2.16,16,8.82,13.44,26.91,15.92,41.67,14.56a80.6,80.6,0,0,0,32.56-10.28l-3.42-3.42c-4.38,5.84-9.75,13.25-9.78,20.92,0,5.15,3.4,8.83,8.23,10.13,5.7,1.55,12,.55,17.67-.76a93,93,0,0,0,20.81-7.72c6.79-3.43,13.55-7.68,18.7-13.35l-4.18-2.44c-2.56,7.2-3.9,15.43-1.68,22.9a20.9,20.9,0,0,0,15.15,14.35c16.42,4.28,31.16-8.14,42-18.9,6.13-6.06,11.7-12.63,17.28-19.2C-437.35,523-440.87,519.43-443,521.89Z" transform="translate(744.4 -70.36)"/><path class="cls-3" d="M-575.82,404.18c-10.16,2.38-22,7.58-27,17.39a20.07,20.07,0,0,0,5,24.41c14.48,11.64,39.33,7.32,55.13.76q-1.79-2.75-3.55-5.49c-10.59,8.66-30.75,26.12-16.45,40.22,12.09,11.92,35.19-3.43,44-12.75,2.86-3-1.24-8.05-4.29-5-7.38,7.34-15.1,28.37-2.32,34.61,12.55,6.12,26-9,32.51-18l-6-2.16c-2,11.31-4.41,29.13,8.52,35.2,12.55,5.9,22.76-6.32,30.72-14.34l-5.25-3.63c-3.51,10.73,3.3,26.2,16.7,24,12.89-2.13,18.69-16.1,23.4-26.74,1.72-3.9-4.5-6.11-6.21-2.24-2.61,5.91-5.34,11.64-9.27,16.8-8,10.46-22.61,3.25-18.41-9.56,1-2.94-2.81-6.09-5.26-3.63-5.43,5.47-11,12.78-18.92,14.39-7.4,1.5-10.35-7.64-11-13.08s.57-11.23,1.52-16.56c.61-3.42-4.19-4.68-6-2.17-4.51,6.24-10.18,12.16-17.18,15.54-14.69,7.1-8.82-17.9-3.28-23.42l-4.29-5c-6.95,7.38-23.55,19.74-34.13,13.76-13.7-7.75,9.23-26.31,15.21-31.21,3-2.43-.19-6.89-3.55-5.49-12.09,5-27.26,7.36-40.06,4.1-7.5-1.91-12.79-7.2-13-15.17-.26-10.82,15.39-17.05,23.79-19,4.13-1,3-7.47-1.12-6.51Z" transform="translate(744.4 -70.36)"/><path class="cls-3" d="M-534.74,410.28c26-4.14,55.41,1.59,79.53,11.37,14.66,5.94,28.2,14.93,37.7,27.73,11.71,15.78,12.55,36.13,8.25,54.64-.95,4.09,5.24,6.38,6.21,2.23,4.32-18.59,4.05-37.55-5.25-54.62-8-14.71-21.85-25-36.49-32.47-26.4-13.45-61.58-20.08-91.07-15.38-4.21.67-3.07,7.17,1.12,6.5Z" transform="translate(744.4 -70.36)"/><path class="cls-4" d="M-91.95,521.58c-21,45.57-27.37,158.63-26.72,195.72-82.8-6.29-287.56-6.77-381.32-6.57-.87-35.8-6.19-71.82-13.3-106.79h0c-7.13-35.27-18.56-77.31-27.82-104.81,85.56-31.65,280.46-75.35,355-91.93C-146.37,456.24-90.91,523.11-91.95,521.58Z" transform="translate(744.4 -70.36)"/><path class="cls-5" d="M-113.72,623.9c-1,9.16-1.72,18.13-2.34,26.65,0,0-232.58-41.49-391-12.4-1.87-11.71-4-23.18-6.24-34.21C-511.35,603.82-260.87,588.1-113.72,623.9Z" transform="translate(744.4 -70.36)"/><g class="cls-6"><path class="cls-7" d="M-91.95,521.58c-21,45.57-27.37,158.63-26.72,195.72-69.11-5.35-231.17-6.42-320.16-6.59,96.65-3.85,279.26-27.76,333.39-150.48a10.84,10.84,0,0,1-11.31-5.2c-1.69-2.78-5.85-3-5.85-3-18.55,2.39-13.67,26-15.42,36.5-7,49.29-58.83,35.48-43.1-19,1.09-7.43.13-12.44-1.16-15.62-2.41-6.47-13.81-11.12-15-.06-1.16,11.23-11,12-11,12s-26,2.56-27.08-16-18.36-16.08-18.36-16.08c-56.68,7.38,3.49,54.59-44.07,65.56-27.73,1.73-28-33.72-28-33.72s0-26.52-17.07-28.49c-12.27-1.42-16.67,5.74-18.18,9.87-2.23,7.34-1.22,24.21-20.64,26.3-13.71.61-18.14-7.74-19.54-12.43-2-7.65.22-26.89-20.46-25.68-15.67,2.74-17.88,10.59-16.4,20.41,1.56,6.62,7.16,37.08-20.7,38.08-44.54-1.43-17.29-53-37.54-57.76,0,0-8.64-2.51-10.34,4.84-2.34,8.71-11.93,11.09-19.35,9.43-5.2-19.54-9.89-34.82-12.63-43.38,82.18-53,275.26-82.53,352-90,0,0,7.8,5,19,13.21C-113.26,496.49-91.95,521.58-91.95,521.58Z" transform="translate(744.4 -70.36)"/></g><path class="cls-3" d="M-108.86,550.66c-6.15-.4-7.57-8.49-13.26-8.15-28.88,2.25.86,66.84-42.17,66.17-40.05-7.56.64-63.77-25.5-70.85-3-.47-6.41.43-7,6.45-1.15,11.23-11,12-11,12s-26,2.56-27.07-16-18.37-16.07-18.37-16.07c-56.68,7.38,3.49,54.59-44.06,65.56-45.36-2.82-12.21-53.44-45-62.21-14.4-.93-17.65,6.29-19,13.6-.43,4.33-3.19,21.84-19.83,22.57-13.72.61-18.15-7.74-19.54-12.43-2-7.65.21-26.89-20.46-25.68-15.67,2.74-17.89,10.59-16.4,20.41,1.55,6.62,7.16,37.08-20.7,38.08-31.28,1.11-28-33.8-28-33.8,1.8-23.94-15-30.74-19.85-19.12-1.79,6.31-6.64,8.92-12.28,9.76-27.31,3.27-22.67-41.83-22.67-41.83,87.91-62,357.36-93.85,355-91.93,0-.1,98.57,63.33,97.28,109.63C-89.48,548-101.16,551.68-108.86,550.66Z" transform="translate(744.4 -70.36)"/><g class="cls-8"><path class="cls-2" d="M-94.75,494.26c-413.5,61-392.3-22.12-392.3-22.12,118.66-47.39,301-64.94,301-64.94S-115.86,452.12-94.75,494.26Z" transform="translate(744.4 -70.36)"/></g><path class="cls-9" d="M-257.91,470c-53.44,36.23-108.91,32.09-120.39-8-2.7-22.13,1.32-35.86,16.53-63.57,34-58.47,98-17.3,124.54,13.3h0C-226.21,428.63-226.1,447.3-257.91,470Z" transform="translate(744.4 -70.36)"/><g class="cls-6"><path class="cls-7" d="M-257.91,470c-54.32,37.55-116.46,31.9-121.18-14.58,19.44,28.47,64.56,32.56,116.72-2.2,19.76-13.77,27-26.7,27.26-38.13C-226.83,429.83-227.67,449-257.91,470Z" transform="translate(744.4 -70.36)"/></g><path class="cls-10" d="M-331.06,461.45c-7.35,6.81-16.48-3.28-9-9.91C-332.68,444.73-323.55,454.82-331.06,461.45Z" transform="translate(744.4 -70.36)"/><path class="cls-10" d="M-337.61,417.79c-7.35,6.82-16.47-3.27-9-9.9C-339.23,401.08-330.1,411.16-337.61,417.79Z" transform="translate(744.4 -70.36)"/><path class="cls-10" d="M-289.15,444.4c-7.35,6.81-16.47-3.27-9-9.9C-290.77,427.68-281.64,437.77-289.15,444.4Z" transform="translate(744.4 -70.36)"/><path class="cls-10" d="M-268.64,456.12c-5.49,5.08-12.3-2.45-6.69-7.4S-263,451.17-268.64,456.12Z" transform="translate(744.4 -70.36)"/><path class="cls-10" d="M-354.53,446c-5.48,5.08-12.29-2.44-6.69-7.39S-348.92,441.05-354.53,446Z" transform="translate(744.4 -70.36)"/><g class="cls-8"><path class="cls-2" d="M-294.81,423.51c-.56,40.95-60.08,57.11-84.34,25.37-.72-16.41,16.82-60.64,37.49-72.55C-315,376.63-293.45,398.19-294.81,423.51Z" transform="translate(744.4 -70.36)"/></g><path class="cls-11" d="M-246.17,431.53s-12.64-8.8-10.72-26.53c0,0-24.13,14.62-38.85,10.31,0,0-7.62-8.18,8.19-21.21,0,0-29.86-.16-39.11-6.86,2.67-11.65,29-17.84,48-14.48a7,7,0,0,0,7.14-4.11l15.86-36a3.89,3.89,0,0,1,1.88-1.95c2.42-1.64,7.49,2.38,9.68,3.12,3.07,1.78,10,3.43,7.45,8.32l-18.75,33.39C-262.4,385.7-216.88,407.68-246.17,431.53Z" transform="translate(744.4 -70.36)"/><g class="cls-8"><path class="cls-2" d="M-322.13,426.43c-11.13,24.24-45.27,9.24-34.95-15.35C-345.95,386.85-311.81,401.84-322.13,426.43Z" transform="translate(744.4 -70.36)"/></g><g class="cls-6"><path class="cls-7" d="M-246.17,431.53c17.28-13.83-.13-35.69-10-45.79a11.43,11.43,0,0,1-2-13l18.07-36.92c2.66.9,5.11,3.44,3.46,6.33l-18.74,33.39C-262.36,385.75-216.88,407.7-246.17,431.53Z" transform="translate(744.4 -70.36)"/></g><g class="cls-8"><path class="cls-2" d="M-252.32,354.78c-5,11.12-13.5,18.26-19.64,14.75,1.4-1.52,15.87-38.78,18.21-38.81C-248.27,333.38-247.61,344.07-252.32,354.78Z" transform="translate(744.4 -70.36)"/></g><g class="cls-8"><path class="cls-2" d="M-461.7,481.75c3.71,9.67,21.28,22.3,87.27,23,0,0-61.15-9-68.22-29.35C-446.8,462.8-466.19,469.31-461.7,481.75Z" transform="translate(744.4 -70.36)"/></g></svg>