<svg id="Layer_1" data-name="Layer 1" xmlns="http://www.w3.org/2000/svg" viewBox="0 0 960 960"><defs><style>.cls-1{fill:#ffe2c7;}.cls-2{font-size:122px;font-family:Capriola-Regular, Capriola;}.cls-2,.cls-4{fill:#f44a52;}.cls-3{fill:#fff;}.cls-5{fill:#f5cea7;}.cls-6{fill:#ad592a;}.cls-7{opacity:0.15;}.cls-8{opacity:0.1;}.cls-9{fill:#d71305;}.cls-10{fill:#ff7b61;}.cls-11{fill:#b6c137;}</style></defs><path class="cls-1" d="M234.69,489.15l-4.15,3a58.94,58.94,0,0,0,0,95.72l4.15,3-3.39,3.85A59,59,0,0,0,252.6,688l4.72,2-2.45,4.5a58.95,58.95,0,0,0,41.53,86.24l5.05.89-1.39,4.93a58.95,58.95,0,0,0,59.68,74.84l5.12-.26-.25,5.12a58.95,58.95,0,0,0,74.83,59.68l4.93-1.39.89,5.05a58.95,58.95,0,0,0,86.24,41.53l4.5-2.46,2,4.73a59,59,0,0,0,93.31,21.3l3.85-3.39,3,4.16a59,59,0,0,0,95.72,0l3-4.16,3.84,3.39A59,59,0,0,0,834,973.4l2-4.73,4.5,2.46a58.95,58.95,0,0,0,86.24-41.53l.88-5.05,4.93,1.39a59,59,0,0,0,74.84-59.68l-.25-5.12,5.12.26a59,59,0,0,0,59.68-74.84l-1.39-4.93,5-.89a59,59,0,0,0,41.52-86.24l-2.45-4.5,4.72-2a58.94,58.94,0,0,0,21.3-93.31l-3.39-3.85,4.16-3a58.94,58.94,0,0,0,0-95.72l-4.16-3,3.39-3.85a58.94,58.94,0,0,0-21.3-93.31l-4.72-2,2.45-4.5a59,59,0,0,0-41.52-86.24l-5-.89,1.39-4.92a59,59,0,0,0-59.68-74.84l-5.12.25.25-5.12a59,59,0,0,0-74.84-59.68l-4.93,1.39-.88-5a59,59,0,0,0-86.24-41.53l-4.5,2.46-2-4.73a58.95,58.95,0,0,0-93.32-21.3l-3.84,3.39-3-4.15a58.94,58.94,0,0,0-95.72,0l-3,4.15L631.3,85.3A58.94,58.94,0,0,0,538,106.6l-2,4.73-4.5-2.46a59,59,0,0,0-86.24,41.53l-.89,5-4.93-1.39a58.95,58.95,0,0,0-74.83,59.68l.25,5.12-5.13-.25a58.95,58.95,0,0,0-59.67,74.84l1.39,4.92-5.05.89a58.95,58.95,0,0,0-41.53,86.24l2.46,4.5-4.73,2a59,59,0,0,0-21.3,93.31Z" transform="translate(-206 -60)"/><text class="cls-2" transform="translate(190.49 328.4)">Heavenly</text><text class="cls-2" transform="translate(266.95 854.96)">Bakery</text><path class="cls-3" d="M740,272.68c6.62,3,20.47,9.63,27.69,5.42s5.42-11.44,0-16.86c11.44,4.81,40.94-.6,19.27-12a32.7,32.7,0,0,0,21.07-5.42c8.42-5.41,9.63-18.06-3.62-16.85,6.62-3,19.87-7.23,22.88-14.45,7.22-13.84-12-10.23-19.87-7.82,10.84-9,22.27-22.88,24.08-37.33,1.2-9.63-8.82-33.45-16.86-17.45-12.68,25.26-28.65,42.75-72,54.25s-49.62,67.3-31.37,75.33S740,272.68,740,272.68Z" transform="translate(-206 -60)"/><path class="cls-3" d="M738.78,274.83c6.21,2.83,12.6,5.86,19.43,6.82,3.55.5,7.29.49,10.54-1.26A11.23,11.23,0,0,0,775,271c.1-4.4-2.52-8.47-5.5-11.48l-2.43,4.18a27.61,27.61,0,0,0,9.09,1.78,43.89,43.89,0,0,0,10-.61A19.93,19.93,0,0,0,794,262c2.27-1.57,3.89-4.07,3-6.92a9.4,9.4,0,0,0-2.79-4.07,29.39,29.39,0,0,0-6-4L787,251.7A35.76,35.76,0,0,0,801,250a29.35,29.35,0,0,0,11.13-6.31c4.14-4,6.77-11.1,2.64-16-2.47-2.95-6.76-3.54-10.36-3.23l1.26,4.66,1.33-.59.38-.16-.07,0,.82-.34c1.08-.45,2.16-.89,3.24-1.35,2.53-1.06,5.05-2.16,7.48-3.44a34.43,34.43,0,0,0,6.62-4.39,17.53,17.53,0,0,0,2.65-2.86,15.64,15.64,0,0,0,1.55-2.69c1.71-3.47,2.9-8.27-.57-11.13-2.85-2.34-6.91-2.48-10.43-2.22a53.72,53.72,0,0,0-11.91,2.3l2.43,4.17a87.5,87.5,0,0,0,15.82-17.13c4.51-6.5,7.94-13.85,9-21.75a23.05,23.05,0,0,0-.39-6.88,36.93,36.93,0,0,0-2-7.13,29,29,0,0,0-3.48-6.69,12,12,0,0,0-5.36-4.48,6.73,6.73,0,0,0-6.55,1.35c-2.12,1.67-3.3,4.18-4.51,6.52A123,123,0,0,1,804,163.34c-.69,1-1.41,2-2.15,3l-.54.72c-.1.12-.2.25-.29.38-.33.43.25-.33,0,0-.38.49-.77,1-1.16,1.46q-2.37,2.91-5,5.6t-5.66,5.22c-.5.43-1,.84-1.53,1.25l-.75.6.21-.17-.24.19-.42.31c-1.09.82-2.2,1.62-3.33,2.39A102.82,102.82,0,0,1,767.42,193c-.75.34-1.5.67-2.26,1l-.09,0-.6.25-1.22.5q-2.44,1-4.91,1.88c-3.55,1.28-7.15,2.45-10.77,3.51-3.31,1-6.69,1.75-9.94,2.91a56.84,56.84,0,0,0-8.07,3.56,54.91,54.91,0,0,0-12.81,9.55,59.07,59.07,0,0,0-9.24,12.09,62.62,62.62,0,0,0-5.77,13.31,60,60,0,0,0-2.43,13.28,44.36,44.36,0,0,0,.75,11.95,25.64,25.64,0,0,0,3.75,9.31,16.27,16.27,0,0,0,3.13,3.49,18.58,18.58,0,0,0,5.69,3,25.43,25.43,0,0,0,18.2,0,27.35,27.35,0,0,0,9.88-6.85,18.6,18.6,0,0,0,1.49-1.83,2.5,2.5,0,0,0-.9-3.42,2.57,2.57,0,0,0-3.42.89.36.36,0,0,1-.07.1c-.27.37.54-.67.15-.19s-.59.7-.89,1c-.46.49-.93,1-1.43,1.42-.3.28-.62.56-.94.83l-.47.38-.12.09c-.28.23.27-.2.26-.2l-.3.23a25.18,25.18,0,0,1-2.54,1.66q-.71.41-1.44.75l-.76.35c-.15.07.56-.22.11,0l-.5.19a22.36,22.36,0,0,1-3.51,1l-.95.16c-.46.08.53-.06.06,0l-.61.06a20.15,20.15,0,0,1-2.06.09c-.72,0-1.45,0-2.17-.1l-.61-.07.23,0-.26,0c-.42-.06-.84-.14-1.25-.22a30.18,30.18,0,0,1-5-1.55c-.44-.18.24.11-.2-.09l-.2-.09-.46-.23c-.28-.14-.55-.3-.82-.47s-.54-.39-.81-.56.56.45.27.21l-.17-.14-.4-.34a13.61,13.61,0,0,1-1.39-1.45l-.3-.36c.11.12.42.55.18.22l-.17-.22c-.2-.28-.39-.57-.58-.86a20.06,20.06,0,0,1-1.06-1.93l-.24-.51c0-.07-.07-.15-.11-.23-.2-.47.22.53.09.19s-.29-.71-.42-1.07a28.72,28.72,0,0,1-1.27-4.84c-.08-.42-.15-.85-.21-1.28s0,.1,0,.26c0-.1,0-.2,0-.3s-.06-.48-.08-.71c-.1-.93-.16-1.86-.2-2.79a49.47,49.47,0,0,1,.15-5.84c0-.52.1-1,.16-1.56,0-.25.06-.5.09-.75,0-.41,0,0,0,.2l.06-.41c.15-1.05.33-2.09.54-3.13a58.68,58.68,0,0,1,1.64-6.29c.35-1.08.72-2.14,1.12-3.19.21-.54.43-1.08.65-1.62s-.12.27-.05.12l.15-.36c.12-.28.25-.55.37-.83A62,62,0,0,1,712.3,230c.61-1,1.26-2,1.93-3,.35-.5.7-1,1.06-1.49l.49-.65c.06-.08.41-.54.14-.19s.08-.09.14-.17a55.56,55.56,0,0,1,4.88-5.4c.9-.87,1.83-1.71,2.78-2.51l1.5-1.21-.22.17.17-.13.35-.27.81-.59A52.81,52.81,0,0,1,733,210.5c.61-.32,1.22-.62,1.84-.91l.84-.38.5-.22.21-.09-.17.07c1.29-.52,2.59-1,3.92-1.46,3.31-1.1,6.73-1.89,10.07-2.89,3.52-1.06,7-2.21,10.44-3.48a129.18,129.18,0,0,0,17.79-8,91,91,0,0,0,13.9-9.45,79.15,79.15,0,0,0,10.53-10.5,98.79,98.79,0,0,0,8.71-12.31q1.92-3.19,3.66-6.48c.6-1.15,1.18-2.31,1.77-3.46a18.21,18.21,0,0,1,1.06-1.81c.09-.14.19-.28.29-.41.22-.31.15-.15-.06.07.2-.21.37-.46.58-.68s.32-.33.49-.48l.3-.25c0-.05-.53.36-.14.11.18-.11.36-.22.55-.32s.44-.2,0,0,0,0,.07,0,.34-.08.5-.13c.42-.11-.6,0-.29,0l.29,0c.35,0,.76.2-.05,0,.17.05.36.06.53.11l.28.09c.38.12-.17-.06-.28-.12.18.1.38.18.56.28a4.66,4.66,0,0,1,.47.3c.1.07.44.33.06,0s0,0,.05.05a12.58,12.58,0,0,1,1,.95c.16.18.32.36.47.55l.21.26c.19.23-.34-.47-.17-.23a1.33,1.33,0,0,0,.14.19,22.78,22.78,0,0,1,1.73,2.83c.27.52.53,1,.77,1.57.06.12.11.25.17.37l.09.21c-.18-.4,0,.05,0,.14a4.37,4.37,0,0,1,.18.46,37,37,0,0,1,2,7c.05.26.09.51.13.77,0,.1.09.66,0,.17s0,.06,0,.17c.06.52.11,1,.14,1.56s0,1,0,1.51c0,.22,0,.45,0,.67l0,.3c0,.43,0-.21,0,0a37.42,37.42,0,0,1-1.17,5.32c-.26.87-.54,1.73-.86,2.57-.16.43-.32.86-.49,1.28l-.12.29s-.16.37,0,.1l0,.09-.21.48a59.72,59.72,0,0,1-5.65,9.81c-.57.81-1.15,1.6-1.75,2.38-.17.23,0,0,.06-.07s-.13.17-.2.26l-.41.51-1,1.18c-1.22,1.48-2.5,2.9-3.81,4.29a92.47,92.47,0,0,1-7.72,7.22,2.51,2.51,0,0,0-.39,3,2.58,2.58,0,0,0,2.83,1.15c1.43-.44,2.89-.82,4.36-1.15.84-.19,1.69-.36,2.54-.51l1.28-.2c.22,0,1-.12.07,0l.74-.09a29,29,0,0,1,5.1-.2c.36,0,.72.09,1.08.1-.92,0-.28,0,0,0l.59.11a9.05,9.05,0,0,1,.93.25l.48.17c.27.09-.66-.3-.31-.13l.27.13c.27.14.5.31.76.46s-.33-.25-.32-.24.13.1.19.16l.33.34c.35.36-.36-.57-.1-.14a3.79,3.79,0,0,0,.2.34c.31.52-.13-.43,0-.15s.11.31.14.47a2.44,2.44,0,0,1,.06.26c.09.38,0-.65,0-.36s0,.31,0,.47a4.87,4.87,0,0,1,0,.54c0,.07,0,.14,0,.21,0,.41.14-.74,0-.13a11.08,11.08,0,0,1-.28,1.17c-.06.21-.13.43-.21.63s-.09.27-.14.4-.34.46,0-.05a10.29,10.29,0,0,0-.68,1.42,10.16,10.16,0,0,1-.74,1.38c-.13.21-.34.42-.44.63l.13-.16-.27.33a15.74,15.74,0,0,1-1.13,1.18c-.37.36-.76.69-1.17,1s0,0,0,0l-.26.2-.79.57c-1,.7-2.08,1.34-3.17,1.94s-2.46,1.3-3.73,1.89a40.5,40.5,0,0,1-3.76,1.66c.05,0,.54-.22.13,0l-.53.22-.89.37-1.73.72c-1.2.49-2.4,1-3.58,1.53a2.5,2.5,0,0,0-1.15,2.82,2.54,2.54,0,0,0,2.41,1.84,17.37,17.37,0,0,1,2.6-.06l.54,0,.23,0c.43,0-.19,0-.22,0,.31.11.7.12,1,.21s.62.18.93.28.05.08-.14-.06c.13.09.33.15.48.23s.45.27.67.41c.41.26-.4-.35-.11-.09l.32.28c.17.16.33.35.49.52s-.37-.56-.08-.1c.07.12.15.23.21.34s.2.43.32.63c0,0-.23-.65-.14-.32a.88.88,0,0,1,0,.15c0,.12.09.25.12.38s.08.52.16.75c-.07-.21-.07-.68,0-.2l0,.42c0,.25,0,.5,0,.75s0,.25,0,.38c0,.58.09-.44,0-.11a15.51,15.51,0,0,1-.42,1.66c-.05.14-.09.27-.14.4-.16.41-.11.16,0-.1-.16.28-.27.6-.42.88a13.24,13.24,0,0,1-1,1.57c-.09.12-.19.24-.27.36s.4-.49.15-.19l-.13.15c-.21.26-.43.5-.66.75a18,18,0,0,1-1.51,1.38c-.33.27.45-.33,0,0l-.4.28-1.25.83a27.64,27.64,0,0,1-2.7,1.54l-1.37.64c-.35.16.36-.14,0,0l-.3.12-.91.35a31.34,31.34,0,0,1-3.42,1c-.56.14-1.12.27-1.69.38l-.86.15-.42.07c-.07,0-.66.09-.31.05s-.06,0-.1,0l-.54.06-.86.08c-.6,0-1.21.08-1.82.09a33.41,33.41,0,0,1-3.61-.1c-2.49-.2-3.39,3.53-1.27,4.66.94.5,1.87,1,2.76,1.59.38.24.74.49,1.1.75.16.11.31.24.47.34-.65-.39,0,0,.13.12a11,11,0,0,1,1.43,1.38c.08.09.45.54.13.13s0,0,0,.09.27.44.39.67c.26.48-.13-.41-.08-.2a2.29,2.29,0,0,0,.09.28c0,.1,0,.19.07.28.12.47,0-.73,0-.25,0,.17,0,.35,0,.52,0-.87.11-.59,0-.31a2.76,2.76,0,0,0-.08.27c-.11.44.3-.57.11-.26l-.12.23-.17.26c-.24.4.43-.46.15-.2s-.28.31-.43.46l-.24.2c-.38.34.56-.38.13-.09a12.91,12.91,0,0,1-1.29.77l-.79.37.32-.13-.19.07-.49.19a26,26,0,0,1-3.8,1l-1,.18-.5.07c-.64.1.58-.06-.09,0s-1.45.16-2.19.21a41.54,41.54,0,0,1-4.6.08c-.82,0-1.64-.09-2.45-.17l-.63-.07-.25,0c-.49-.06.65.1.17,0l-1.15-.19a20,20,0,0,1-4.23-1.2,2.51,2.51,0,0,0-2.83,1.15,2.59,2.59,0,0,0,.39,3c.32.31.63.64.92,1,.13.14.25.29.37.43l.24.29c.24.29,0-.06,0-.07.19,0,.57.78.68,1a11.75,11.75,0,0,1,.69,1.13c.18.32.35.65.5,1,.27.56-.11-.33.05.09l.22.61c.1.33.2.66.27,1,0,.18.07.36.11.54s0,.36,0,0,0,.06,0,.12c0,.33,0,.66,0,1,0,.17,0,.34,0,.52s0,.36,0,0,0,0,0,.11a7.7,7.7,0,0,1-.26.94,1.8,1.8,0,0,1-.08.21c-.1.31-.09-.07.08-.17-.09,0-.19.38-.24.48s-.18.32-.28.48l-.13.2c-.08.12-.14.37,0,.08s.1-.12,0,0l-.17.2c-.15.17-.31.34-.47.5l-.46.43c-.08.06-.59.46-.33.27l-.3.21a8,8,0,0,1-.69.43c-.27.17-.56.31-.84.45s.53-.19,0,0l-.54.19c-.31.09-.61.17-.92.24l-.52.1-.22,0c-.52.09.45,0,.14,0a27.4,27.4,0,0,1-4.53-.08l.24,0a.78.78,0,0,1-.26,0l-.6-.1-1.21-.23c-.82-.18-1.64-.38-2.45-.61-1.64-.45-3.25-1-4.84-1.59-.86-.32-1.71-.65-2.56-1l-.64-.26-.23-.1c.58.27.18.08,0,0l-1.21-.52c-1.38-.61-2.75-1.24-4.12-1.86a2.57,2.57,0,0,0-3.42.89A2.53,2.53,0,0,0,738.78,274.83Z" transform="translate(-206 -60)"/><path class="cls-4" d="M771.78,203.3c4-.86,9.1-.92,12.27,2.14,2.69,2.6,1,6.71-1.15,8.89-4.12,4.13-11.42,6-17.09,6.28a1.44,1.44,0,0,0-.38,2.82c3.88,1,15,3.47,11.8,9.5-2.4,4.55-12.39,2.34-16,.91-.25.92-.51,1.84-.76,2.77,2.89,1,9.78,8.12,4,9.74-3.29.94-7.86-1.28-10.67-2.83-1.18-.66-2.85.73-2,2,2.38,3.36,6.38,8.66,3.09,12.63-2.46,3-8.71-.34-11.46-1.35-1.42-.51-2.32,1.43-1.4,2.41a5.13,5.13,0,0,1,1,6.09c-1.29,2.64-4.46,2-6.54,1.1a28.42,28.42,0,0,1-6.78-4.91c-1.4-1.21-3.44.82-2,2,3.84,3.32,8.72,7.76,14.2,6.21,5.71-1.61,5.53-9,2.15-12.56-.47.8-.94,1.6-1.4,2.4,4.54,1.66,10,4.26,14.25.61,5.08-4.38.2-12.12-2.63-16.13l-2,2c4.34,2.4,11.43,5.38,15.76,1.57,5.09-4.47-2.8-12.26-6.93-13.73-1.77-.64-2.46,2.1-.76,2.77,5.19,2,17.15,3.82,19.71-3.13,3-8.22-8.16-11.37-13.95-12.82l-.39,2.83c7.42-.35,17.35-3.15,21.35-10a8.89,8.89,0,0,0-1.64-10.65c-3.62-3.51-10-3.31-14.5-2.35-1.82.39-1,3.17.76,2.78Z" transform="translate(-206 -60)"/><path class="cls-4" d="M755.17,207.78c-12.42,3.59-24.47,12.51-32.61,22.36a37.53,37.53,0,0,0-8.8,19.45c-1,8.61,2.79,16.7,8,23.29,1.15,1.46,3.17-.59,2-2-5.06-6.42-8.21-14.09-7-22.36,1-6.86,4.86-13,9.34-18.1,7.59-8.67,18.63-16.6,29.81-19.83a1.44,1.44,0,0,0-.76-2.78Z" transform="translate(-206 -60)"/><path class="cls-3" d="M632,272.68c-6.62,3-20.47,9.63-27.69,5.42s-5.42-11.44,0-16.86c-11.44,4.81-40.94-.6-19.27-12a32.67,32.67,0,0,1-21.06-5.42c-8.43-5.41-9.64-18.06,3.61-16.85-6.62-3-19.87-7.23-22.88-14.45-7.22-13.84,12-10.23,19.87-7.82-10.84-9-22.27-22.88-24.08-37.33-1.21-9.63,8.82-33.45,16.85-17.45,12.69,25.26,28.66,42.75,72,54.25s49.62,67.3,31.37,75.33S632,272.68,632,272.68Z" transform="translate(-206 -60)"/><path class="cls-3" d="M630.7,270.52c-1.21.54-2.4,1.1-3.61,1.63l-1,.42-.53.23-.18.08c-.73.34-1.5.62-2.26.92a50.76,50.76,0,0,1-9.58,2.86l-.6.1-.26,0c-.29,0,.25,0,.24,0a4.43,4.43,0,0,1-1.26.14,19.16,19.16,0,0,1-2.27.05l-1-.08c-.45,0,.55.1,0,0l-.58-.11c-.32-.06-.62-.14-.93-.23l-.48-.16-.2-.07c-.41-.15.41.19.14.06a19.24,19.24,0,0,1-2-1.2c.48.32-.05,0-.16-.13s-.32-.28-.47-.43-.71-.59-.8-.89c.09.3.24.34.1.11l-.14-.2c-.1-.15-.19-.31-.28-.47s-.14-.28-.22-.41a1.81,1.81,0,1,0,.07.17,1.08,1.08,0,0,0-.11-.28,8.89,8.89,0,0,1-.28-1,1.7,1.7,0,0,0,0-.22c-.07-.25,0,.29,0,.3a4,4,0,0,0,0-.6,9.79,9.79,0,0,1,0-1.21c0-.08,0-.36,0,0s0-.07,0-.13.07-.36.11-.53a10.3,10.3,0,0,1,.38-1.23c0-.08.06-.16.08-.23.16-.43-.16.34,0,.06s.18-.41.29-.61a16.35,16.35,0,0,1,1.43-2.33l.17-.22c.2-.28-.39.46,0,0l.42-.5c.36-.41.73-.81,1.11-1.19a2.5,2.5,0,0,0-2.44-4.18,19.91,19.91,0,0,1-3.7,1.1l-.95.18-.54.08-.25,0,.23,0c-.74.08-1.48.16-2.22.21a42.79,42.79,0,0,1-4.53,0c-.76,0-1.53-.09-2.29-.16l-1.08-.12c-.64-.08.45.07,0,0l-.62-.09a28,28,0,0,1-4-.93l-.81-.27-.4-.15c-.22-.09-.76-.39,0,0-.49-.25-1-.46-1.47-.74l-.61-.4c-.41-.28.38.33.19.14l-.3-.25-.41-.43c-.32-.34.35.51.17.23l-.19-.29-.13-.23c-.23-.4.21.66.11.26,0-.17-.17-.83-.1-.26s0-.08,0-.25c0-.45-.13.56,0,.32a3.59,3.59,0,0,0,.08-.35c0-.1.08-.21.11-.31-.07.22-.28.59-.06.16a6.38,6.38,0,0,1,.43-.71c.31-.46-.41.47,0,0l.35-.39c.25-.27.51-.53.78-.77s.32-.28.49-.41l.2-.17c.43-.35-.28.2-.06.05.39-.28.77-.56,1.17-.82,1-.66,2-1.26,3.1-1.82A2.5,2.5,0,0,0,585,246.7a33.89,33.89,0,0,1-6.29-.07l-.75-.09c.58.07-.3,0-.41-.07-.54-.08-1.07-.18-1.6-.29-1-.22-2-.48-3-.79q-.72-.22-1.44-.48l-.81-.31c-.14,0-.86-.36-.4-.16a30.36,30.36,0,0,1-2.8-1.39c-.88-.5-1.72-1.05-2.56-1.62l-.4-.28a2,2,0,0,0-.23-.17s.44.35.24.18-.54-.44-.79-.67a13.7,13.7,0,0,1-1.4-1.45c-.07-.09-.39-.5-.13-.16s-.06-.08-.12-.16c-.2-.28-.39-.56-.57-.85-.32-.52-.56-1.06-.84-1.59-.12-.23.14.35.13.31s-.06-.15-.08-.22l-.15-.39c-.09-.27-.18-.55-.25-.84s-.13-.55-.18-.83c-.1-.49,0,.58,0,.17,0-.15,0-.29,0-.44s0-.5,0-.75,0-.24,0-.36c0-.32.21-.63,0,.09.07-.22.08-.47.14-.7l.1-.34c0-.12.23-.58,0-.12s0,0,0-.07a3,3,0,0,1,.16-.31c.06-.1.12-.2.19-.3a1.63,1.63,0,0,1,.11-.17c.2-.32-.37.43-.18.22s.37-.41.57-.6.26-.2.37-.31-.5.33-.29.23l.23-.16a6.88,6.88,0,0,1,.8-.45c.53-.28-.38.12,0,0l.54-.19a10.05,10.05,0,0,1,1-.26c.22-.05.9-.06.12,0,.2,0,.41-.05.61-.07a17.68,17.68,0,0,1,2.91,0,2.5,2.5,0,0,0,1.26-4.66c-2.07-.94-4.18-1.78-6.28-2.65-.16-.07-1-.38-.32-.14-.26-.09-.51-.22-.77-.33l-1.81-.79c-1.14-.51-2.27-1.05-3.38-1.61s-2.13-1.13-3.16-1.76c-.52-.32-1-.66-1.54-1l-.66-.48-.26-.19c-.21-.16-.17-.13.12.1l-.24-.2a17.1,17.1,0,0,1-2.3-2.2l-.27-.33c-.14-.17-.1-.29.13.16-.1-.2-.28-.38-.4-.57a10.28,10.28,0,0,1-.76-1.38,9.55,9.55,0,0,0-.7-1.48c.27.39.15.38.08.18s-.11-.26-.16-.4-.18-.5-.25-.76a11.08,11.08,0,0,1-.28-1.17c-.13-.61,0,.62,0,0,0-.2,0-.4,0-.6s0-.35,0-.52-.14.74,0,.36c0-.07,0-.14,0-.21s.08-.3.12-.45c.14-.48-.35.63,0,.08a3.79,3.79,0,0,0,.2-.34c.26-.43-.46.5-.1.14.1-.1.18-.2.28-.29l.18-.16c.24-.25-.57.39-.26.19s.47-.31.72-.44.68-.31.18-.09.13,0,.25-.08a8.36,8.36,0,0,1,1-.27l.49-.1c.24,0,1-.09.06,0a30.3,30.3,0,0,1,4.95,0l1.47.15.25,0c.66.08-.49-.07,0,0l.74.11c1,.15,1.92.33,2.87.53,1.67.36,3.32.78,4.94,1.28a2.5,2.5,0,0,0,2.44-4.18,90.52,90.52,0,0,1-8-7.53q-1.93-2.06-3.73-4.23c-.3-.36-.59-.73-.89-1.1-.13-.17-.27-.34-.4-.52s0,.05.05.08l-.33-.44c-.57-.75-1.13-1.52-1.67-2.29a59,59,0,0,1-5.63-9.94l-.12-.29s.15.38,0,.11l-.24-.58c-.18-.46-.35-.92-.52-1.38q-.47-1.28-.84-2.58c-.26-.89-.48-1.79-.67-2.7-.09-.41-.17-.81-.24-1.21,0-.24-.08-.47-.11-.71s0-.2,0-.3c-.05-.33-.07-.09,0,.05a3.62,3.62,0,0,1-.1-1.32c0-.51,0-1,0-1.52s.09-1.05.15-1.58,0,.34,0,.17,0-.3.07-.45l.15-.9a38,38,0,0,1,2-6.94c0-.13.11-.25.16-.38.2-.51-.19.42,0,0s.24-.54.37-.81c.25-.54.51-1.08.8-1.61a24.23,24.23,0,0,1,1.72-2.74c.22-.32-.4.49-.07.09l.21-.26.51-.58c.31-.33.64-.62,1-.92s-.45.31-.16.12l.24-.16c.17-.12.36-.23.55-.34l.24-.12a2.39,2.39,0,1,0-.28.12c.19,0,.37-.14.56-.19l.25-.05c.43-.11-.38,0-.3,0a4.69,4.69,0,0,0,.53,0c.13,0,.52.05,0,0s-.16,0,0,0l.58.17c.38.12-.38-.2-.26-.11a1.92,1.92,0,0,0,.25.12c.2.11.38.27.58.37s-.5-.42-.17-.13l.29.25c.2.19.39.39.58.59l.25.29c.24.29.07.16-.06-.09.16.29.39.55.57.83a21.25,21.25,0,0,1,1.06,1.86c.57,1.14,1.15,2.28,1.75,3.41a118.26,118.26,0,0,0,7.68,12.62,86.71,86.71,0,0,0,9.71,11.58,84.21,84.21,0,0,0,12.35,10.09,103.87,103.87,0,0,0,15.4,8.48,161.82,161.82,0,0,0,20.1,7.39c3.32,1,6.71,1.78,10,2.88.68.23,1.35.47,2,.72l.87.34.51.2.22.09c.31.13-.08,0-.17-.07a18.69,18.69,0,0,0,1.82.82c.62.29,1.23.6,1.84.91a53.07,53.07,0,0,1,6.59,4.07l.76.56.34.26-.22-.17.28.22c.49.39,1,.78,1.44,1.18.95.8,1.88,1.64,2.77,2.52a54.11,54.11,0,0,1,4.85,5.41c.34.42-.27-.36,0,0l.25.32.57.77,1,1.44c.67,1,1.31,2,1.92,3a58.76,58.76,0,0,1,3.2,6.15c.11.25.23.51.34.77l0,.12.1.24c.21.52.42,1,.61,1.56.4,1.05.77,2.11,1.11,3.19a56.33,56.33,0,0,1,1.62,6.29c.21,1,.39,2.08.54,3.12.06.41,0,0,0-.19l.06.4c0,.25.06.51.08.76.06.51.11,1,.15,1.55a47.29,47.29,0,0,1,.13,5.83c0,.93-.1,1.86-.2,2.78,0,.22,0,.44-.08.66-.05.42,0-.09,0-.26,0,.12,0,.23,0,.35-.07.45-.14.89-.22,1.33a28.85,28.85,0,0,1-1.29,4.76c-.06.19-.13.37-.2.55l-.1.24,0,.12c-.14.37.12-.28.13-.31-.15.34-.3.68-.46,1a18.12,18.12,0,0,1-1.08,1.92c-.18.29-.38.58-.58.86a1.84,1.84,0,0,0-.17.22c-.2.28.42-.53.2-.26l-.34.42a14,14,0,0,1-1.38,1.4l-.37.31c-.5.42.45-.31,0,0s-.52.36-.79.53-.55.32-.83.46-.28.14-.43.21l-.33.15c.46-.21-.25.1-.4.15a27.6,27.6,0,0,1-4.9,1.45c-.38.08-.77.13-1.15.2l.22,0a2.09,2.09,0,0,1-.34,0l-.6.06c-.72.06-1.44.09-2.17.08a19,19,0,0,1-2.12-.12,3.44,3.44,0,0,0-.45-.05s.56.08.29,0l-.23,0c-.34-.05-.68-.12-1-.19a21.16,21.16,0,0,1-3.54-1.06l-.37-.15.11.05-.81-.38c-.5-.25-1-.51-1.48-.79A27,27,0,0,1,637.8,275c-.4-.3.24.19.13.11l-.24-.2-.54-.44c-.3-.26-.6-.52-.89-.79-.49-.46-1-.93-1.41-1.43-.28-.31-.56-.63-.82-.95s.43.58.16.2a.36.36,0,0,1-.07-.1,2.56,2.56,0,0,0-3.42-.89,2.53,2.53,0,0,0-.9,3.42,26.22,26.22,0,0,0,19.84,10.4,27.34,27.34,0,0,0,10.12-1.82,18.4,18.4,0,0,0,5.42-3,19.51,19.51,0,0,0,5.4-8.08,34.92,34.92,0,0,0,2.15-10.8,53.22,53.22,0,0,0-.94-12.78,62,62,0,0,0-4.19-13.42,58.85,58.85,0,0,0-7.27-12.4,58.1,58.1,0,0,0-11.44-11.31A55.6,55.6,0,0,0,634.08,203c-3.31-1.15-6.72-1.93-10.07-2.92q-5.41-1.61-10.72-3.53-2.46-.9-4.89-1.88l-1.13-.47-.26-.11c-.26-.11.16.07.17.08a2.94,2.94,0,0,1-.68-.3l-2.17-1c-2.83-1.28-5.62-2.67-8.34-4.19q-3.76-2.08-7.32-4.52c-1.13-.77-2.24-1.57-3.32-2.39l-.42-.32.21.16-.17-.13-.81-.64c-.52-.42-1-.83-1.53-1.26A79.42,79.42,0,0,1,572,168.76l-.56-.7-.3-.38-.14-.18-.14-.18-.25-.33-.58-.78c-.74-1-1.45-2-2.15-3-1.41-2.07-2.74-4.2-4-6.37s-2.52-4.47-3.69-6.76c-1.31-2.55-2.62-5.07-5-6.79a6.48,6.48,0,0,0-6.12-.82,12.4,12.4,0,0,0-5.34,4.6,30.35,30.35,0,0,0-3.45,6.76,37.49,37.49,0,0,0-2,7.13,24.08,24.08,0,0,0-.22,7.48,42.1,42.1,0,0,0,3.33,11.14A69.35,69.35,0,0,0,554.84,199a90,90,0,0,0,7.93,7.45l2.43-4.17a56.85,56.85,0,0,0-10.57-2.18c-3.46-.38-7.43-.48-10.57,1.26a6.67,6.67,0,0,0-3.24,4,9.74,9.74,0,0,0,.59,5.93,19,19,0,0,0,3.86,6.41,28.18,28.18,0,0,0,6.17,4.62,71.65,71.65,0,0,0,7.79,3.77c1.39.6,2.78,1.18,4.18,1.75l1,.41.27.11c.41.17-.58-.24.06,0s1,.45,1.58.69l1.26-4.66c-3.44-.3-7.15.23-9.79,2.63a8.84,8.84,0,0,0-2.61,7.48,15.28,15.28,0,0,0,3.94,8.39c2.69,3,6.54,5,10.24,6.5A35.64,35.64,0,0,0,585,251.7L583.74,247a32.38,32.38,0,0,0-5.47,3.58,10.36,10.36,0,0,0-2.79,3.32,5.89,5.89,0,0,0,1.48,7.28,17.29,17.29,0,0,0,7.7,3.37,41.56,41.56,0,0,0,10,.89,28.91,28.91,0,0,0,10.26-1.83l-2.43-4.18a17.73,17.73,0,0,0-5.44,10.27c-.46,4.05,1.72,7.57,4.92,9.86a14.8,14.8,0,0,0,10,2.28,43.29,43.29,0,0,0,10.86-2.63c3.55-1.29,7-2.85,10.41-4.42a2.51,2.51,0,0,0,.9-3.42A2.58,2.58,0,0,0,630.7,270.52Z" transform="translate(-206 -60)"/><path class="cls-4" d="M601,200.52c-4.45-.94-10.08-1.08-13.88,1.86A8.77,8.77,0,0,0,584.56,213c3.56,7.29,14.17,10.19,21.63,10.54l-.39-2.83c-5.79,1.45-17,4.6-13.95,12.82,2.56,7,14.52,5.18,19.71,3.13,1.7-.67,1-3.41-.76-2.77-4.28,1.52-11.23,8.39-7.34,13.22s11.92,1.29,16.17-1.06l-2-2c-2.89,4.1-7.14,10.69-3.17,15.48s10.16,1.73,14.79,0c-.46-.8-.93-1.6-1.4-2.4-3.37,3.58-3.56,11,2.15,12.56,5.48,1.55,10.36-2.89,14.2-6.21,1.4-1.22-.64-3.25-2-2a35.5,35.5,0,0,1-6.78,4.91c-5.08,2.65-9.52-2.91-5.49-7.19.92-1,0-2.92-1.4-2.41-3.16,1.16-6.71,3-10.14,2.17-3.2-.78-2.67-4.93-1.91-7.2a25.94,25.94,0,0,1,3.68-6.25c.88-1.24-.79-2.63-2-2a20.92,20.92,0,0,1-9.67,2.94c-7.12.08-.16-8.7,3-9.85-.25-.93-.51-1.85-.76-2.77-4.11,1.62-13,3.42-16-.91-4-5.6,8.53-8.67,11.8-9.5a1.44,1.44,0,0,0-.38-2.82c-5.71-.27-12.13-2.16-16.58-5.82-2.6-2.14-3.71-5.22-2.31-8.4,1.9-4.32,9.24-3.87,12.92-3.09,1.81.39,2.58-2.39.76-2.78Z" transform="translate(-206 -60)"/><path class="cls-4" d="M616.07,210.56c11,3.19,21.58,10.91,29.28,19.24,4.69,5.07,8.37,11.13,9.74,17.95,1.7,8.4-1.75,16.59-6.88,23.1-1.14,1.44.88,3.49,2,2,5.16-6.54,8.57-14.07,8.07-22.54-.44-7.29-4-13.92-8.38-19.58-7.93-10.22-20.58-19.36-33.1-23a1.44,1.44,0,0,0-.76,2.78Z" transform="translate(-206 -60)"/><path class="cls-5" d="M909.16,592.25c-21,45.57-27.37,158.63-26.72,195.72-82.79-6.29-287.56-6.77-381.31-6.57-.88-35.8-6.2-71.82-13.31-106.79h0c-7.13-35.27-18.56-77.3-27.82-104.81,85.56-31.65,280.46-75.34,355-91.93C854.74,526.91,910.2,593.78,909.16,592.25Z" transform="translate(-206 -60)"/><path class="cls-6" d="M887.39,694.58c-1,9.15-1.72,18.12-2.34,26.65,0,0-232.58-41.5-391-12.41-1.86-11.71-4-23.18-6.24-34.21C489.77,674.49,740.24,658.78,887.39,694.58Z" transform="translate(-206 -60)"/><g class="cls-7"><path d="M909.16,592.25c-21,45.57-27.37,158.63-26.72,195.72-69.1-5.34-231.17-6.42-320.16-6.59,96.65-3.85,279.26-27.75,333.39-150.48a10.81,10.81,0,0,1-11.3-5.2c-1.7-2.78-5.86-3-5.86-3-18.54,2.39-13.67,26-15.42,36.5-7,49.29-58.83,35.48-43.1-19.05,1.1-7.43.13-12.44-1.15-15.62-2.41-6.47-13.82-11.12-15-.06-1.16,11.23-11,12-11,12s-26,2.57-27.07-16-18.37-16.08-18.37-16.08C690.7,611.8,750.87,659,703.31,670c-27.73,1.72-28-33.72-28-33.72s0-26.53-17.08-28.5c-12.27-1.42-16.67,5.74-18.18,9.87-2.23,7.34-1.22,24.21-20.63,26.31-13.72.6-18.15-7.75-19.55-12.44-2-7.65.22-26.89-20.45-25.68-15.67,2.74-17.89,10.59-16.4,20.41,1.55,6.62,7.15,37.08-20.71,38.08-44.54-1.43-17.29-53-37.53-57.76,0,0-8.65-2.51-10.35,4.84-2.34,8.72-11.92,11.09-19.34,9.43-5.21-19.53-9.9-34.82-12.64-43.38,82.19-53,275.26-82.53,352-90.05,0,0,7.81,5,19,13.22C887.85,567.16,909.16,592.25,909.16,592.25Z" transform="translate(-206 -60)"/></g><path class="cls-4" d="M892.25,621.33c-6.15-.4-7.57-8.48-13.26-8.15-28.88,2.25.87,66.84-42.17,66.17-40.05-7.56.64-63.76-25.5-70.85-3-.47-6.4.43-7,6.45-1.16,11.23-11,12-11,12s-26,2.56-27.08-16-18.36-16.08-18.36-16.08c-56.68,7.38,3.49,54.59-44.07,65.56-45.36-2.82-12.21-53.44-45-62.21-14.39-.92-17.65,6.29-19,13.6-.44,4.33-3.2,21.84-19.84,22.57-13.71.61-18.14-7.74-19.54-12.43-2-7.65.21-26.89-20.46-25.68-15.67,2.74-17.88,10.59-16.4,20.41,1.56,6.62,7.16,37.08-20.7,38.08-31.27,1.11-28-33.8-28-33.8,1.79-23.93-15-30.74-19.85-19.12-1.8,6.31-6.65,8.92-12.28,9.76C455.36,614.9,460,569.8,460,569.8c87.92-62,357.36-93.84,355-91.93,0-.1,98.58,63.33,97.28,109.63C911.63,618.67,900,622.35,892.25,621.33Z" transform="translate(-206 -60)"/><g class="cls-8"><path class="cls-3" d="M906.37,564.93c-413.51,61-392.31-22.12-392.31-22.12,118.66-47.39,301-64.94,301-64.94S885.25,522.79,906.37,564.93Z" transform="translate(-206 -60)"/></g><path class="cls-9" d="M743.21,540.71c-53.45,36.22-108.91,32.08-120.39-8.05-2.7-22.13,1.31-35.86,16.52-63.57,34-58.47,98-17.3,124.54,13.3h0C774.91,499.3,775,518,743.21,540.71Z" transform="translate(-206 -60)"/><g class="cls-7"><path d="M743.21,540.71C688.88,578.25,626.74,572.6,622,526.12c19.44,28.47,64.56,32.56,116.72-2.2,19.76-13.76,27-26.7,27.26-38.13C774.28,500.5,773.45,519.64,743.21,540.71Z" transform="translate(-206 -60)"/></g><path class="cls-10" d="M670.05,532.12c-7.35,6.81-16.47-3.27-9-9.91C668.43,515.4,677.56,525.49,670.05,532.12Z" transform="translate(-206 -60)"/><path class="cls-10" d="M663.5,488.47c-7.34,6.81-16.47-3.28-9-9.91C661.89,471.75,671,481.84,663.5,488.47Z" transform="translate(-206 -60)"/><path class="cls-10" d="M712,515.07c-7.34,6.81-16.47-3.27-9-9.9C710.35,498.36,719.47,508.44,712,515.07Z" transform="translate(-206 -60)"/><path class="cls-10" d="M732.47,526.79c-5.48,5.08-12.3-2.45-6.69-7.4S738.08,521.84,732.47,526.79Z" transform="translate(-206 -60)"/><path class="cls-10" d="M646.59,516.67c-5.49,5.09-12.3-2.44-6.69-7.39S652.19,511.72,646.59,516.67Z" transform="translate(-206 -60)"/><g class="cls-8"><path class="cls-3" d="M706.3,494.18c-.56,40.95-60.07,57.11-84.34,25.37-.72-16.41,16.83-60.64,37.49-72.54C686.11,447.31,707.66,468.86,706.3,494.18Z" transform="translate(-206 -60)"/></g><path class="cls-11" d="M755,502.2s-12.64-8.8-10.72-26.53c0,0-24.13,14.62-38.86,10.31,0,0-7.61-8.17,8.2-21.21,0,0-29.87-.16-39.12-6.86,2.67-11.65,29-17.84,48-14.48a7,7,0,0,0,7.13-4.11l15.86-36a4,4,0,0,1,1.88-1.95c2.42-1.64,7.49,2.38,9.68,3.12,3.07,1.78,10,3.43,7.45,8.32l-18.75,33.39C738.71,456.37,784.24,478.35,755,502.2Z" transform="translate(-206 -60)"/><g class="cls-8"><path class="cls-3" d="M679,497.1c-11.13,24.24-45.27,9.25-35-15.35C655.16,457.52,689.3,472.51,679,497.1Z" transform="translate(-206 -60)"/></g><g class="cls-7"><path d="M755,502.2c17.27-13.83-.14-35.69-10-45.79a11.43,11.43,0,0,1-2-13L761,406.5c2.67.9,5.12,3.44,3.47,6.33l-18.75,33.39C738.75,456.42,784.23,478.38,755,502.2Z" transform="translate(-206 -60)"/></g><g class="cls-8"><path class="cls-3" d="M748.8,425.45c-5,11.12-13.51,18.26-19.64,14.75,1.4-1.52,15.87-38.78,18.2-38.81C752.84,404.05,753.5,414.74,748.8,425.45Z" transform="translate(-206 -60)"/></g><g class="cls-8"><path class="cls-3" d="M539.42,552.42c3.71,9.67,21.27,22.3,87.27,23,0,0-61.16-9-68.23-29.36C554.31,533.48,534.92,540,539.42,552.42Z" transform="translate(-206 -60)"/></g></svg>