<?xml version="1.0" encoding="utf-8"?>
<!-- Generator: Adobe Illustrator 26.0.1, SVG Export Plug-In . SVG Version: 6.00 Build 0)  -->
<svg version="1.1" id="Layer_1" xmlns="http://www.w3.org/2000/svg" xmlns:xlink="http://www.w3.org/1999/xlink" x="0px" y="0px"
	 viewBox="0 0 1970.7 720" style="enable-background:new 0 0 1970.7 720;" xml:space="preserve">
<style type="text/css">
	.st0{fill:#F04D54;}
	.st1{font-family:'Capriola-Regular';}
	.st2{font-size:205.09px;}
	.st3{fill:#F5CEA8;}
	.st4{fill:#AE5A2A;}
	.st5{opacity:0.15;}
	.st6{fill:#010101;}
	.st7{opacity:0.1;}
	.st8{fill:#FFFFFF;}
	.st9{fill:#D61F26;}
	.st10{fill:#F47A63;}
	.st11{fill:#B7C134;}
</style>
<text transform="matrix(1 0 0 1 688.0425 365.9058)" class="st0 st1 st2">Heavenly</text>
<text transform="matrix(1 0 0 1 1209.9225 581.1859)" class="st0 st1 st2">Bakery</text>
<g>
	<path class="st0" d="M558.9,115.5c9-6.9,21.6-12.9,33-9c9.8,3.3,10.4,15.5,7.6,23.5c-5.4,15.1-21.4,28.3-35.2,35.6
		c-3.9,2-2.2,8.4,2.4,7.5c10.8-2.1,41.4-8.9,40.5,9.8c-0.6,14.1-28.1,20.3-38.9,21c0.4,2.6,0.9,5.2,1.3,7.8
		c8.4-0.8,33.9,8.8,21.5,19.5c-7.1,6.2-21.1,6-29.9,5.4c-3.7-0.2-6.2,5.2-2.6,7.2c9.9,5.6,26,14.1,22.5,27.9
		c-2.6,10.3-22.1,9.3-30.1,10c-4.2,0.4-4.1,6.3-0.7,7.6c6.1,2.4,9.9,7.2,9.7,13.9c-0.1,8.1-8.8,10.3-15,10.4
		c-7.7,0.2-15.3-2.2-22.6-4.3c-4.9-1.4-7.6,6.1-2.7,7.5c13.4,3.8,30.8,9.1,42.6-1.2c12.3-10.7,3.2-28.8-9.4-33.8
		c-0.2,2.5-0.4,5.1-0.7,7.6c13.2-1.2,29.9-1.1,36.2-15.2c7.5-16.8-13.7-30.4-25.4-37.1c-0.9,2.4-1.7,4.8-2.6,7.2
		c13.6,0.9,34.8,0,41.1-14.6c7.4-17.1-21.3-27.2-33.3-26.1c-5.1,0.5-3.6,8.1,1.3,7.8c15.3-1,47.2-10.6,45.4-30.9
		c-2.1-24-33.6-18.8-49.8-15.6c0.8,2.5,1.6,5,2.4,7.5c18.1-9.5,39.5-28.2,41.5-49.8c1-10.9-6.5-21.2-16.5-24.6
		c-13.1-4.5-28.7,3.4-38.9,11.2C549.7,112.5,554.9,118.5,558.9,115.5L558.9,115.5z"/>
	<path class="st0" d="M522.7,146.1c-26.7,23.5-46.3,59.8-55,93.9c-5,19.4-5.6,39.6,0.8,58.7c7.6,22.6,26.5,38.3,47.2,48.6
		c4.6,2.3,7.2-5.2,2.7-7.5c-20.1-10.1-37-25.5-43.6-47.5c-5.5-18.2-3.1-38,2.1-56c8.8-30.5,27-63.1,51-84.3
		C531.7,148.8,526.6,142.8,522.7,146.1L522.7,146.1z"/>
	<path class="st0" d="M97.7,218.5c-12.2,2.9-26.3,9.1-32.3,20.8c-5,10-2.5,22.1,6,29.2c17.3,13.9,47.1,8.8,66,0.9
		c-1.4-2.2-2.8-4.4-4.3-6.6c-12.7,10.4-36.8,31.3-19.7,48.2c14.5,14.3,42.1-4.1,52.7-15.3c3.4-3.6-1.5-9.6-5.1-6
		c-8.8,8.8-18.1,34-2.8,41.4c15,7.3,31.1-10.8,38.9-21.6l-7.2-2.6c-2.4,13.5-5.3,34.9,10.2,42.2c15,7.1,27.3-7.6,36.8-17.2l-6.3-4.3
		c-4.2,12.9,4,31.4,20,28.7c15.4-2.6,22.4-19.3,28-32c2.1-4.7-5.4-7.3-7.4-2.7c-3.1,7.1-6.4,13.9-11.1,20.1
		c-9.6,12.5-27.1,3.9-22-11.4c1.2-3.5-3.4-7.3-6.3-4.3c-6.5,6.6-13.2,15.3-22.7,17.2c-8.9,1.8-12.4-9.1-13.2-15.7s0.7-13.4,1.8-19.8
		c0.7-4.1-5-5.6-7.2-2.6c-5.4,7.5-12.2,14.6-20.6,18.6c-17.6,8.5-10.6-21.4-3.9-28l-5.1-6c-8.3,8.8-28.2,23.6-40.9,16.5
		c-16.4-9.3,11.1-31.5,18.2-37.4c3.6-2.9-0.2-8.3-4.3-6.6c-14.5,6-32.6,8.8-48,4.9c-9-2.3-15.3-8.6-15.6-18.2
		c-0.3-13,18.4-20.4,28.5-22.8C103.9,225.1,102.6,217.4,97.7,218.5L97.7,218.5z"/>
	<path class="st0" d="M146.9,225.8c31.1-5,66.4,1.9,95.2,13.6c17.6,7.1,33.8,17.9,45.2,33.2c14,18.9,15,43.3,9.9,65.4
		c-1.1,4.9,6.3,7.6,7.4,2.7c5.2-22.3,4.9-45-6.3-65.4c-9.6-17.6-26.2-29.9-43.7-38.9c-31.6-16.1-73.7-24-109.1-18.4
		C140.5,218.8,141.9,226.6,146.9,225.8L146.9,225.8z"/>
	<path class="st3" d="M608,369.3c-21,45.6-27.4,158.6-26.7,195.7c-82.8-6.3-287.6-6.8-381.3-6.6c-0.9-35.8-6.2-71.8-13.3-106.8l0,0
		c-7.1-35.3-18.6-77.3-27.8-104.8c85.6-31.6,280.5-75.4,355-91.9C553.6,304,609.1,370.8,608,369.3z"/>
	<path class="st4" d="M586.3,471.6c-1,9.2-1.7,18.1-2.3,26.7c0,0-232.6-41.5-391-12.4c-1.9-11.7-4-23.2-6.2-34.2
		C188.6,451.6,439.1,435.8,586.3,471.6z"/>
	<g class="st5">
		<path class="st6" d="M608,369.3c-21,45.6-27.4,158.6-26.7,195.7c-69.1-5.3-231.2-6.4-320.2-6.6c96.6-3.8,279.3-27.8,333.4-150.5
			c-4.5,0.8-9-1.3-11.3-5.2c-1.7-2.8-5.8-3-5.8-3c-18.5,2.4-13.7,26-15.4,36.5c-7,49.3-58.8,35.5-43.1-19c1.1-7.4,0.1-12.4-1.2-15.6
			c-2.4-6.5-13.8-11.1-15-0.1c-1.2,11.2-11,12-11,12s-26,2.6-27.1-16c-1.1-18.6-18.4-16.1-18.4-16.1c-56.7,7.4,3.5,54.6-44.1,65.6
			c-27.7,1.7-28-33.7-28-33.7s0-26.5-17.1-28.5c-12.3-1.4-16.7,5.7-18.2,9.9c-2.2,7.3-1.2,24.2-20.6,26.3
			c-13.7,0.6-18.1-7.7-19.5-12.4c-2-7.7,0.2-26.9-20.5-25.7c-15.7,2.7-17.9,10.6-16.4,20.4c1.6,6.6,7.2,37.1-20.7,38.1
			c-44.5-1.4-17.3-53-37.5-57.8c0,0-8.6-2.5-10.3,4.8c-2.3,8.7-11.9,11.1-19.4,9.4c-5.2-19.5-9.9-34.8-12.6-43.4
			c82.2-53,275.3-82.5,352-90c0,0,7.8,5,19,13.2C586.7,344.2,608,369.3,608,369.3z"/>
	</g>
	<path class="st0" d="M591.1,398.4c-6.1-0.4-7.6-8.5-13.3-8.2c-28.9,2.2,0.9,66.8-42.2,66.2c-40.1-7.6,0.6-63.8-25.5-70.8
		c-3-0.5-6.4,0.4-7,6.5c-1.1,11.2-11,12-11,12s-26,2.6-27.1-16s-18.4-16.1-18.4-16.1c-56.7,7.4,3.5,54.6-44.1,65.6
		c-45.4-2.8-12.2-53.4-45-62.2c-14.4-0.9-17.6,6.3-19,13.6c-0.4,4.3-3.2,21.8-19.8,22.6c-13.7,0.6-18.1-7.7-19.5-12.4
		c-2-7.7,0.2-26.9-20.5-25.7c-15.7,2.7-17.9,10.6-16.4,20.4c1.5,6.6,7.2,37.1-20.7,38.1c-31.3,1.1-28-33.8-28-33.8
		c1.8-23.9-15-30.7-19.9-19.1c-1.8,6.3-6.6,8.9-12.3,9.8c-27.3,3.3-22.7-41.8-22.7-41.8c87.9-62,357.4-93.9,355-91.9
		c0-0.1,98.6,63.3,97.3,109.6C610.5,395.7,598.8,399.4,591.1,398.4z"/>
	<g class="st7">
		<path class="st8" d="M605.2,342c-413.5,61-392.3-22.1-392.3-22.1c118.7-47.4,301-64.9,301-64.9S584.1,299.9,605.2,342z"/>
	</g>
	<path class="st9" d="M442.1,317.7c-53.4,36.2-108.9,32.1-120.4-8c-2.7-22.1,1.3-35.9,16.5-63.6c34-58.5,98-17.3,124.5,13.3l0,0
		C473.8,276.4,473.9,295,442.1,317.7z"/>
	<g class="st5">
		<path class="st6" d="M442.1,317.7c-54.3,37.5-116.5,31.9-121.2-14.6c19.4,28.5,64.6,32.6,116.7-2.2c19.8-13.8,27-26.7,27.3-38.1
			C473.2,277.6,472.3,296.7,442.1,317.7z"/>
	</g>
	<path class="st10" d="M368.9,309.2c-7.4,6.8-16.5-3.3-9-9.9C367.3,292.5,376.4,302.6,368.9,309.2z"/>
	<path class="st10" d="M362.4,265.5c-7.4,6.8-16.5-3.3-9-9.9C360.8,248.8,369.9,258.9,362.4,265.5z"/>
	<path class="st10" d="M410.8,292.1c-7.4,6.8-16.5-3.3-9-9.9C409.2,275.4,418.3,285.5,410.8,292.1z"/>
	<path class="st10" d="M431.3,303.9c-5.5,5.1-12.3-2.5-6.7-7.4S437,298.9,431.3,303.9z"/>
	<path class="st10" d="M345.5,293.7c-5.5,5.1-12.3-2.4-6.7-7.4S351.1,288.8,345.5,293.7z"/>
	<g class="st7">
		<path class="st8" d="M405.2,271.2c-0.6,41-60.1,57.1-84.3,25.4c-0.7-16.4,16.8-60.6,37.5-72.6C385,224.4,406.5,245.9,405.2,271.2z
			"/>
	</g>
	<path class="st11" d="M453.8,279.3c0,0-12.6-8.8-10.7-26.5c0,0-24.1,14.6-38.9,10.3c0,0-7.6-8.2,8.2-21.2c0,0-29.9-0.2-39.1-6.9
		c2.7-11.6,29-17.8,48-14.5c3,0.3,5.9-1.3,7.1-4.1l15.9-36c0.4-0.9,1-1.5,1.9-2c2.4-1.6,7.5,2.4,9.7,3.1c3.1,1.8,10,3.4,7.4,8.3
		l-18.8,33.4C437.6,233.4,483.1,255.4,453.8,279.3z"/>
	<g class="st7">
		<path class="st8" d="M377.9,274.2c-11.1,24.2-45.3,9.2-35-15.4C354,234.6,388.2,249.6,377.9,274.2z"/>
	</g>
	<g class="st5">
		<path class="st6" d="M453.8,279.3c17.3-13.8-0.1-35.7-10-45.8c-3.3-3.5-4.1-8.7-2-13l18.1-36.9c2.7,0.9,5.1,3.4,3.5,6.3
			l-18.7,33.4C437.6,233.5,483.1,255.4,453.8,279.3z"/>
	</g>
	<g class="st7">
		<path class="st8" d="M447.7,202.5c-5,11.1-13.5,18.3-19.6,14.8c1.4-1.5,15.9-38.8,18.2-38.8C451.7,181.1,452.4,191.8,447.7,202.5z
			"/>
	</g>
	<g class="st7">
		<path class="st8" d="M238.3,329.5c3.7,9.7,21.3,22.3,87.3,23c0,0-61.1-9-68.2-29.4C253.2,310.5,233.8,317,238.3,329.5z"/>
	</g>
</g>
</svg>
